HIERARCHY
ROOT Hips
{
	OFFSET 0.000000 0.000000 0.000000
	CHANNELS 6 Xposition Yposition Zposition Zrotation Yrotation Xrotation 
	JOINT LHipJoint
	{
		OFFSET 0.000000 0.000000 0.000000
		CHANNELS 3 Zrotation Yrotation Xrotation
		JOINT LeftUpLeg
		{
			OFFSET 1.363060 -1.794630 0.839290
			CHANNELS 3 Zrotation Yrotation Xrotation
			JOINT LeftLeg
			{
				OFFSET 2.448110 -6.726130 0.000000
				CHANNELS 3 Zrotation Yrotation Xrotation
				JOINT LeftFoot
				{
					OFFSET 2.562200 -7.039590 0.000000
					CHANNELS 3 Zrotation Yrotation Xrotation
					JOINT LeftToeBase
					{
						OFFSET 0.157640 -0.433110 2.322550
						CHANNELS 3 Zrotation Yrotation Xrotation
						End Site
						{
							OFFSET 0.000000 0.000000 0.000000
						}
					}
				}
			}
		}
	}
	JOINT RHipJoint
	{
		OFFSET 0.000000 0.000000 0.000000
		CHANNELS 3 Zrotation Yrotation Xrotation
		JOINT RightUpLeg
		{
			OFFSET -1.305520 -1.794630 0.839290
			CHANNELS 3 Zrotation Yrotation Xrotation
			JOINT RightLeg
			{
				OFFSET -2.542530 -6.985550 0.000000
				CHANNELS 3 Zrotation Yrotation Xrotation
				JOINT RightFoot
				{
					OFFSET -2.568260 -7.056230 0.000000
					CHANNELS 3 Zrotation Yrotation Xrotation
					JOINT RightToeBase
					{
						OFFSET -0.164730 -0.452590 2.363150
						CHANNELS 3 Zrotation Yrotation Xrotation
						End Site
						{
							OFFSET 0.000000 0.000000 0.000000
						}
					}
				}
			}
		}
	}
}
MOTION
Frames: 34
Frame Time: 0.008333
10.391106 17.521406 0.711412 -18.133667 74.811352 -7.881933 -10.763696 0.249211 3.201371 -0.711781 2.046860 -31.808917 -0.805103 0.339566 23.928072 2.416815 12.968465 -7.044708 0.459401 -0.000000 -14.045100 7.192135 -2.882041 2.784993 20.800846 3.229309 0.775493 4.406070 1.039713 1.911873 1.275992 8.882704 0.040393 0.774400 0.000000 -2.875200
10.544483 17.517591 0.721572 -18.031433 74.628093 -7.822323 -10.755312 0.177358 3.174920 -1.029680 2.594736 -32.003663 -0.952528 0.185385 21.733786 2.188047 11.714055 -6.440597 0.547400 0.000000 -15.169800 7.207738 -2.961809 2.682754 20.617303 2.924100 1.333974 4.401723 0.974527 2.085328 1.337668 9.440668 0.261877 0.872400 0.000000 -3.979200
10.699142 17.512250 0.730576 -18.015652 74.491978 -7.860022 -10.744201 0.110662 3.158761 -1.360661 3.064076 -32.154945 -1.111719 0.029001 19.575280 1.944821 10.367391 -5.927438 0.586100 -0.000001 -16.334500 7.228752 -3.042870 2.567410 20.422145 2.560889 1.882801 4.396291 0.904943 2.287387 1.398168 10.014537 0.494219 0.976600 -0.000001 -5.127001
10.855494 17.505405 0.738640 -18.108644 74.403375 -7.997843 -10.729670 0.045973 3.162321 -1.685611 3.432256 -32.290161 -1.276560 -0.131098 17.467674 1.696682 8.970480 -5.507519 0.584100 -0.000000 -17.527700 7.251299 -3.124119 2.448800 20.227620 2.167808 2.404723 4.391408 0.835116 2.510820 1.454874 10.583883 0.712296 1.081300 0.000000 -6.118300
11.013389 17.497257 0.746189 -18.281609 74.364490 -8.209418 -10.710683 -0.017262 3.187581 -2.004228 3.688278 -32.405177 -1.442056 -0.295948 15.410652 1.452623 7.572338 -5.169618 0.553000 0.000001 -18.725000 7.277008 -3.205236 2.325903 20.024834 1.739862 2.900593 4.385960 0.764728 2.755482 1.508445 11.153964 0.920539 1.187200 0.000000 -7.061701
11.172942 17.487991 0.753581 -18.526459 74.373910 -8.480262 -10.686996 -0.079648 3.235514 -2.316352 3.838859 -32.513461 -1.603667 -0.465664 13.407477 1.220294 6.217894 -4.894250 0.505300 -0.000000 -19.911500 7.304702 -3.285683 2.204676 19.816580 1.296433 3.364367 4.379883 0.694871 3.019903 1.558254 11.716751 1.114708 1.292300 -0.000000 -7.963700
11.334089 17.477847 0.761262 -18.816939 74.429437 -8.785561 -10.658510 -0.140153 3.302772 -2.633199 3.902857 -32.619010 -1.758463 -0.639494 11.457139 1.005550 4.948685 -4.654758 0.451600 -0.000000 -21.081000 7.335307 -3.365422 2.087436 19.597969 0.845135 3.795717 4.371966 0.624703 3.306783 1.604788 12.273865 1.304304 1.398000 0.000000 -8.948401
11.496982 17.466959 0.769510 -19.150636 74.525488 -9.118761 -10.626248 -0.197898 3.384964 -2.965576 3.912826 -32.738495 -1.904859 -0.815674 9.566811 0.811662 3.793206 -4.424847 0.399500 0.000000 -22.244200 7.366684 -3.444431 1.981858 19.376564 0.413243 4.192574 4.362127 0.554753 3.616083 1.647277 12.812819 1.489128 1.502400 0.000000 -9.979100
11.661515 17.455554 0.778642 -19.495134 74.658428 -9.455975 -10.590498 -0.250309 3.473740 -3.335860 3.902267 -32.869637 -2.043134 -0.991734 7.741682 0.640188 2.772918 -4.180352 0.353300 0.000000 -23.422900 7.400729 -3.523220 1.887520 19.145783 0.000289 4.560060 4.348363 0.482488 3.953935 1.686704 13.339549 1.692796 1.610800 0.000000 -11.231800
11.827758 17.443751 0.788813 -19.839859 74.823004 -9.790927 -10.552221 -0.295507 3.560934 -3.762416 3.908435 -33.018226 -2.174728 -1.164579 5.998943 0.490448 1.891998 -3.908707 0.314000 0.000001 -24.646500 7.436832 -3.602310 1.806880 18.908819 -0.383890 4.902882 4.329733 0.406792 4.324259 1.722820 13.848494 1.925278 1.724900 -0.000000 -12.699100
11.995505 17.431690 0.800259 -20.141669 75.017722 -10.095742 -10.511053 -0.330570 3.637328 -4.269482 3.956016 -33.171144 -2.301981 -1.331034 4.355837 0.361239 1.148473 -3.608556 0.281200 0.000000 -25.935900 7.478632 -3.682765 1.734696 18.652148 -0.757622 5.230032 4.302984 0.323685 4.735388 1.756651 14.351249 2.224808 1.855200 0.000000 -14.592700
12.164968 17.419367 0.812868 -20.415376 75.236793 -10.387616 -10.467786 -0.355063 3.696465 -4.864028 4.071327 -33.336611 -2.427260 -1.487488 2.850304 0.249276 0.517018 -3.300716 0.252000 0.000000 -27.302600 7.523383 -3.764833 1.673321 18.387631 -1.109755 5.546291 4.268329 0.233463 5.189354 1.786730 14.832166 2.584872 2.000100 0.000000 -16.716900
12.336087 17.406805 0.826591 -20.648693 75.479246 -10.663436 -10.421881 -0.367946 3.733347 -5.550087 4.259694 -33.505481 -2.552303 -1.630772 1.517708 0.152061 -0.027699 -3.019012 0.223500 0.000000 -28.730700 7.572036 -3.849139 1.618321 18.111972 -1.453802 5.858910 4.224113 0.134331 5.691472 1.812637 15.289977 3.018986 2.164100 0.000000 -19.049001
12.508937 17.393973 0.841317 -20.846951 75.743216 -10.933386 -10.372993 -0.369242 3.746529 -6.316394 4.512379 -33.670080 -2.677391 -1.758029 0.396439 0.067343 -0.515145 -2.809526 0.193000 -0.000000 -30.179100 7.623927 -3.935944 1.566621 17.827608 -1.796700 6.173480 4.169683 0.025849 6.243180 1.833360 15.716005 3.529392 2.348100 0.000000 -21.493200
12.683568 17.380748 0.856831 -21.025038 76.027528 -11.213665 -10.320966 -0.359831 3.738307 -7.135890 4.803843 -33.819522 -2.800773 -1.867008 -0.480653 -0.006014 -0.969526 -2.722298 0.159000 -0.000000 -31.585200 7.677838 -4.025090 1.515277 17.539062 -2.142169 6.493335 4.104909 -0.091797 6.843829 1.847790 16.098742 4.113306 2.551200 -0.000000 -23.950900
12.860047 17.366960 0.872969 -21.203571 76.330643 -11.522346 -10.266128 -0.341307 3.714597 -7.967205 5.092990 -33.938230 -2.918578 -1.956190 -1.092501 -0.067826 -1.404303 -2.800817 0.121900 -0.000001 -32.877100 7.732391 -4.116200 1.461636 17.251835 -2.490657 6.820709 4.029932 -0.218054 7.488306 1.855003 16.426246 4.772194 2.772700 -0.000000 -26.424100
13.038568 17.352456 0.889460 -21.417953 76.648953 -11.887904 -10.210203 -0.316356 3.684491 -8.756270 5.330114 -34.009796 -3.025128 -2.024735 -1.431189 -0.116901 -1.821136 -3.073077 0.084600 0.000000 -33.989700 7.784901 -4.208077 1.404648 16.975733 -2.834243 7.155089 3.946708 -0.350970 8.173609 1.854440 16.688405 5.479566 3.003900 -0.000000 -28.675101
13.219161 17.336964 0.906139 -21.685711 76.978552 -12.320678 -10.154905 -0.287686 3.658535 -9.448442 5.456416 -34.011464 -3.113701 -2.072586 -1.508348 -0.150704 -2.204092 -3.542694 0.051500 0.000000 -34.874400 7.834797 -4.299763 1.342490 16.713439 -3.167625 7.494998 3.855560 -0.489932 8.889889 1.846118 16.882680 6.248085 3.246500 -0.000000 -30.935000
13.402069 17.320277 0.922835 -22.034863 77.313502 -12.836932 -10.103099 -0.258425 3.648563 -9.991711 5.416950 -33.929857 -3.177803 -2.100107 -1.344520 -0.166827 -2.530255 -4.189779 0.026600 -0.000001 -35.509200 7.880250 -4.389683 1.276353 16.471961 -3.475878 7.833450 3.758933 -0.632823 9.634174 1.830648 17.013207 7.053042 3.493200 0.000000 -33.087600
13.587145 17.302177 0.939604 -22.431272 77.651050 -13.398810 -10.055999 -0.229908 3.663304 -10.355977 5.158091 -33.741448 -3.212022 -2.107815 -0.977371 -0.162415 -2.763645 -4.966805 0.012100 -0.000000 -35.886599 7.925143 -4.476876 1.202330 16.234572 -3.765856 8.166138 3.654534 -0.780715 10.397215 1.808787 17.105950 7.946019 3.761901 0.000000 -35.804400
13.774671 17.282516 0.956309 -22.884571 77.984978 -14.001939 -10.016150 -0.203333 3.712110 -10.524455 4.651955 -33.461689 -3.214299 -2.095617 -0.430154 -0.137976 -2.887457 -5.813861 0.006000 -0.000000 -36.022600 7.968529 -4.559652 1.124924 16.003592 -4.023114 8.472357 3.546656 -0.930413 11.195999 1.782702 17.193169 8.854884 4.039500 0.000001 -38.510200
13.964556 17.261205 0.973170 -23.330160 78.314231 -14.578126 -9.983298 -0.176801 3.798055 -10.514215 3.887324 -33.103137 -3.185837 -2.062569 0.270382 -0.095402 -2.888262 -6.655931 0.004400 -0.000001 -35.936900 8.015733 -4.637650 1.043813 15.755304 -4.258144 8.734728 3.433358 -1.082458 12.040250 1.753944 17.324592 9.803025 4.345300 -0.000000 -41.563000
14.156660 17.238265 0.990406 -23.691480 78.639113 -15.049365 -9.956513 -0.146758 3.919529 -10.366088 2.883923 -32.696765 -3.131776 -2.006536 1.110492 -0.040010 -2.774185 -7.414513 0.002500 0.000000 -35.654700 8.072306 -4.710657 0.959965 15.464530 -4.485568 8.930520 3.313245 -1.236701 12.953234 1.724097 17.558010 10.785515 4.696200 0.000001 -44.972400
14.350724 17.213742 1.008389 -23.868360 78.961698 -15.317682 -9.933938 -0.108230 4.069477 -10.140904 1.691048 -32.281587 -3.060428 -1.924823 2.084004 0.020177 -2.571559 -8.013438 -0.001800 0.000000 -35.202800 8.145001 -4.779221 0.874613 15.101958 -4.726683 9.037288 3.182501 -1.393426 13.955840 1.692986 17.946243 11.830018 5.121400 -0.000001 -49.007600
14.546378 17.187862 1.027535 -23.755482 79.286458 -15.285386 -9.914232 -0.056085 4.236627 -9.908641 0.383914 -31.896709 -2.981698 -1.814889 3.190742 0.075364 -2.321945 -8.386889 -0.007600 -0.000000 -34.603500 8.240505 -4.843096 0.787035 14.636703 -5.013860 9.029696 3.039217 -1.551871 15.094592 1.660664 18.547246 12.895881 5.636300 0.000000 -53.120900
14.743091 17.160865 1.048283 -23.248914 79.617624 -14.857556 -9.896419 0.013833 4.406725 -9.739186 -0.947901 -31.575421 -2.905066 -1.675327 4.429605 0.116110 -2.071643 -8.485971 -0.011200 0.000000 -33.867000 8.364193 -4.902549 0.697089 14.045406 -5.375754 8.888761 2.879213 -1.711507 16.402292 1.623803 19.386914 13.992739 6.264600 0.000000 -57.161301
14.940264 17.133036 1.070988 -22.272173 79.958281 -13.965865 -9.881044 0.103400 4.565468 -9.689070 -2.212241 -31.341860 -2.837600 -1.506604 5.796718 0.135011 -1.865828 -8.286895 -0.008700 -0.000001 -32.986100 8.517900 -4.957773 0.605368 13.320296 -5.832708 8.599855 2.699342 -1.871046 17.908693 1.577164 20.456263 15.125850 7.019799 -0.000000 -60.803100
15.137063 17.104713 1.096215 -20.710457 80.314521 -12.506431 -9.867807 0.212685 4.701286 -9.805214 -3.342634 -31.193303 -2.782932 -1.312350 7.268512 0.130407 -1.724051 -7.791155 0.000900 0.000000 -31.922601 8.703193 -5.007859 0.508133 12.450370 -6.411042 8.156979 2.495087 -2.028965 19.629615 1.513047 21.714501 16.334309 7.917400 0.000000 -64.064200
15.332829 17.076264 1.123850 -18.594855 80.684564 -10.510142 -9.859789 0.336776 4.805930 -10.094907 -4.279125 -31.135556 -2.740439 -1.097742 8.831752 0.102944 -1.668991 -7.038411 0.015199 0.000000 -30.629800 8.911220 -5.053415 0.409054 11.476927 -7.095110 7.561477 2.268534 -2.182954 21.567004 1.425795 23.055239 17.625124 8.936401 0.000000 -66.563899
15.526623 17.048062 1.154331 -15.788034 81.077173 -7.847429 -9.854218 0.470789 4.879348 -10.569010 -5.029771 -31.125950 -2.707688 -0.872519 10.431240 0.061812 -1.668197 -6.084922 0.029700 -0.000000 -29.043501 9.141468 -5.092816 0.298269 10.393411 -7.915156 6.814608 2.018095 -2.332000 23.721768 1.309221 24.378230 19.048045 10.068400 -0.000000 -68.531400
15.717756 17.020536 1.187173 -12.362972 81.490229 -4.586983 -9.851327 0.604712 4.921322 -11.196179 -5.594333 -31.143934 -2.680652 -0.646022 12.038376 0.013747 -1.712623 -5.018916 0.039700 0.000000 -27.141200 9.381772 -5.126980 0.177897 9.262783 -8.835389 5.937270 1.751383 -2.475158 26.061325 1.162924 25.506640 20.611189 11.245100 -0.000001 -69.926600
15.905542 16.994138 1.222165 -8.284346 81.927302 -0.695188 -9.845219 0.729365 4.936779 -11.948824 -6.016833 -31.140957 -2.656543 -0.429435 13.604066 -0.032172 -1.765072 -3.931484 0.043599 -0.000000 -24.941900 9.629082 -5.155625 0.041299 8.110541 -9.853142 4.948641 1.474857 -2.613456 28.560299 0.987997 26.282083 22.320401 12.381500 0.000001 -70.902700
16.089429 16.969423 1.258434 -3.669003 82.383922 3.713029 -9.829263 0.836465 4.928658 -12.778071 -6.327793 -31.083778 -2.633297 -0.231594 15.101608 -0.071416 -1.811669 -2.919084 0.042301 -0.000000 -22.530300 9.879493 -5.178789 -0.112257 6.992448 -10.938364 3.877581 1.197463 -2.748406 31.174831 0.787606 26.525340 24.162896 13.345800 -0.000000 -71.626500
16.269043 16.946892 1.295824 1.607293 82.860021 8.755615 -9.786424 0.921647 4.905662 -13.661898 -6.605034 -30.904540 -2.612219 -0.062435 16.471562 -0.097223 -1.801129 -2.053065 0.042600 0.000001 -20.028200 10.144262 -5.192259 -0.293196 5.896229 -12.101941 2.748117 0.925504 -2.882068 33.881779 0.562836 26.111465 26.083898 13.990600 -0.000000 -72.103900
